<svg width="300" height="267" viewBox="0 0 300 267" fill="none" xmlns="http://www.w3.org/2000/svg">
<path d="M230.2 72.375H213.366C208.368 55.6209 198.04 40.4161 183.555 28.4883C169.071 16.5605 151.011 8.38802 131.428 4.89944C111.845 1.41086 91.5243 2.74609 72.7743 8.75341C54.0243 14.7607 37.5972 25.1992 25.3596 38.8828C13.122 52.5664 5.56459 68.9464 3.54612 86.1616C1.52765 103.377 5.12906 120.737 13.9411 136.269C22.7532 151.801 36.4226 164.883 53.396 174.027C70.3694 183.172 89.9663 188.013 109.96 188H230.2C247.916 188 264.907 181.909 277.435 171.067C289.962 160.225 297 145.52 297 130.187C297 114.855 289.962 100.15 277.435 89.3079C264.907 78.4659 247.916 72.375 230.2 72.375Z" fill="#C7A9E7" stroke="black" stroke-width="5" stroke-linecap="round" stroke-linejoin="round"/>
<path d="M113.244 213.456C113.244 222.535 105.811 229.912 96.6221 229.912C87.433 229.912 80 222.535 80 213.456C80 204.376 87.433 197 96.6221 197C105.811 197 113.244 204.376 113.244 213.456Z" fill="#D9D9D9" stroke="black" stroke-width="2"/>
<path d="M87.1147 252.353C87.1147 259.714 81.0583 265.705 73.5574 265.705C66.0564 265.705 60 259.714 60 252.353C60 244.991 66.0564 239 73.5574 239C81.0583 239 87.1147 244.991 87.1147 252.353Z" fill="#D9D9D9" stroke="black" stroke-width="2"/>
</svg>
